<mxfile host="app.diagrams.net" modified="2024-07-19T04:46:56.898Z" agent="Mozilla/5.0 (Windows NT 10.0; Win64; x64) AppleWebKit/537.36 (KHTML, like Gecko) Chrome/126.0.0.0 Safari/537.36" etag="Uu7fHiE1Tq-eHGDWd5Aq" version="24.7.1" type="device">
  <diagram name="Page-1" id="fj6OYNSNkGHL7Ipyx1oD">
    <mxGraphModel dx="1909" dy="595" grid="1" gridSize="10" guides="1" tooltips="1" connect="1" arrows="1" fold="1" page="1" pageScale="1" pageWidth="850" pageHeight="1100" math="0" shadow="0">
      <root>
        <mxCell id="0" />
        <mxCell id="1" parent="0" />
        <mxCell id="OxkYubxT8FCirFuDokRq-1" value="Plant" style="rounded=0;whiteSpace=wrap;html=1;" vertex="1" parent="1">
          <mxGeometry x="350" y="200" width="120" height="60" as="geometry" />
        </mxCell>
        <mxCell id="OxkYubxT8FCirFuDokRq-3" value="" style="endArrow=none;html=1;rounded=0;entryX=0;entryY=1;entryDx=0;entryDy=0;" edge="1" parent="1" source="OxkYubxT8FCirFuDokRq-4" target="OxkYubxT8FCirFuDokRq-1">
          <mxGeometry width="50" height="50" relative="1" as="geometry">
            <mxPoint x="200" y="360" as="sourcePoint" />
            <mxPoint x="430" y="330" as="targetPoint" />
          </mxGeometry>
        </mxCell>
        <mxCell id="OxkYubxT8FCirFuDokRq-5" value="" style="endArrow=none;html=1;rounded=0;entryX=0.406;entryY=1.078;entryDx=0;entryDy=0;entryPerimeter=0;" edge="1" parent="1" target="OxkYubxT8FCirFuDokRq-1">
          <mxGeometry width="50" height="50" relative="1" as="geometry">
            <mxPoint x="400" y="360" as="sourcePoint" />
            <mxPoint x="430" y="330" as="targetPoint" />
          </mxGeometry>
        </mxCell>
        <mxCell id="OxkYubxT8FCirFuDokRq-6" value="Root" style="rounded=0;whiteSpace=wrap;html=1;" vertex="1" parent="1">
          <mxGeometry x="340" y="360" width="120" height="60" as="geometry" />
        </mxCell>
        <mxCell id="OxkYubxT8FCirFuDokRq-7" value="" style="endArrow=none;html=1;rounded=0;entryX=1;entryY=1;entryDx=0;entryDy=0;" edge="1" parent="1" target="OxkYubxT8FCirFuDokRq-1">
          <mxGeometry width="50" height="50" relative="1" as="geometry">
            <mxPoint x="610" y="360" as="sourcePoint" />
            <mxPoint x="430" y="330" as="targetPoint" />
          </mxGeometry>
        </mxCell>
        <mxCell id="OxkYubxT8FCirFuDokRq-8" value="Stem" style="rounded=0;whiteSpace=wrap;html=1;" vertex="1" parent="1">
          <mxGeometry x="570" y="360" width="120" height="60" as="geometry" />
        </mxCell>
        <mxCell id="OxkYubxT8FCirFuDokRq-9" value="" style="endArrow=none;html=1;rounded=0;entryX=0;entryY=1;entryDx=0;entryDy=0;" edge="1" parent="1" source="OxkYubxT8FCirFuDokRq-10" target="OxkYubxT8FCirFuDokRq-4">
          <mxGeometry width="50" height="50" relative="1" as="geometry">
            <mxPoint x="80" y="510" as="sourcePoint" />
            <mxPoint x="430" y="440" as="targetPoint" />
          </mxGeometry>
        </mxCell>
        <mxCell id="OxkYubxT8FCirFuDokRq-10" value="Lamina" style="rounded=0;whiteSpace=wrap;html=1;" vertex="1" parent="1">
          <mxGeometry x="40" y="600" width="70" height="40" as="geometry" />
        </mxCell>
        <mxCell id="OxkYubxT8FCirFuDokRq-15" value="" style="endArrow=none;html=1;rounded=0;entryX=0;entryY=1;entryDx=0;entryDy=0;" edge="1" parent="1" target="OxkYubxT8FCirFuDokRq-6">
          <mxGeometry width="50" height="50" relative="1" as="geometry">
            <mxPoint x="340" y="550" as="sourcePoint" />
            <mxPoint x="430" y="440" as="targetPoint" />
          </mxGeometry>
        </mxCell>
        <mxCell id="OxkYubxT8FCirFuDokRq-17" value="" style="endArrow=none;html=1;rounded=0;entryX=1;entryY=1;entryDx=0;entryDy=0;" edge="1" parent="1" target="OxkYubxT8FCirFuDokRq-6">
          <mxGeometry width="50" height="50" relative="1" as="geometry">
            <mxPoint x="460" y="550" as="sourcePoint" />
            <mxPoint x="430" y="440" as="targetPoint" />
          </mxGeometry>
        </mxCell>
        <mxCell id="OxkYubxT8FCirFuDokRq-18" value="" style="endArrow=none;html=1;rounded=0;entryX=0;entryY=1;entryDx=0;entryDy=0;" edge="1" parent="1" target="OxkYubxT8FCirFuDokRq-8">
          <mxGeometry width="50" height="50" relative="1" as="geometry">
            <mxPoint x="570" y="560" as="sourcePoint" />
            <mxPoint x="430" y="440" as="targetPoint" />
          </mxGeometry>
        </mxCell>
        <mxCell id="OxkYubxT8FCirFuDokRq-19" value="Primary roots" style="rounded=0;whiteSpace=wrap;html=1;" vertex="1" parent="1">
          <mxGeometry x="320" y="550" width="60" height="50" as="geometry" />
        </mxCell>
        <mxCell id="OxkYubxT8FCirFuDokRq-30" value="" style="edgeStyle=orthogonalEdgeStyle;rounded=0;orthogonalLoop=1;jettySize=auto;html=1;" edge="1" parent="1" source="OxkYubxT8FCirFuDokRq-21" target="OxkYubxT8FCirFuDokRq-19">
          <mxGeometry relative="1" as="geometry" />
        </mxCell>
        <mxCell id="OxkYubxT8FCirFuDokRq-21" value="Secondary roots" style="rounded=0;whiteSpace=wrap;html=1;" vertex="1" parent="1">
          <mxGeometry x="430" y="550" width="70" height="50" as="geometry" />
        </mxCell>
        <mxCell id="OxkYubxT8FCirFuDokRq-23" value="Nodes" style="rounded=0;whiteSpace=wrap;html=1;" vertex="1" parent="1">
          <mxGeometry x="540" y="560" width="60" height="40" as="geometry" />
        </mxCell>
        <mxCell id="OxkYubxT8FCirFuDokRq-25" value="" style="endArrow=none;html=1;rounded=0;entryX=1;entryY=1;entryDx=0;entryDy=0;" edge="1" parent="1" target="OxkYubxT8FCirFuDokRq-8">
          <mxGeometry width="50" height="50" relative="1" as="geometry">
            <mxPoint x="690" y="560" as="sourcePoint" />
            <mxPoint x="430" y="440" as="targetPoint" />
          </mxGeometry>
        </mxCell>
        <mxCell id="OxkYubxT8FCirFuDokRq-26" value="Internodes" style="rounded=0;whiteSpace=wrap;html=1;" vertex="1" parent="1">
          <mxGeometry x="650" y="557.5" width="70" height="42.5" as="geometry" />
        </mxCell>
        <mxCell id="OxkYubxT8FCirFuDokRq-28" value="" style="endArrow=none;html=1;rounded=0;entryX=0;entryY=0.5;entryDx=0;entryDy=0;" edge="1" parent="1" target="OxkYubxT8FCirFuDokRq-4">
          <mxGeometry width="50" height="50" relative="1" as="geometry">
            <mxPoint x="60" y="510" as="sourcePoint" />
            <mxPoint x="320" y="380" as="targetPoint" />
          </mxGeometry>
        </mxCell>
        <mxCell id="OxkYubxT8FCirFuDokRq-29" value="Secondary vein" style="rounded=0;whiteSpace=wrap;html=1;" vertex="1" parent="1">
          <mxGeometry x="-10" y="510" width="90" height="50" as="geometry" />
        </mxCell>
        <mxCell id="OxkYubxT8FCirFuDokRq-31" value="" style="endArrow=none;html=1;rounded=0;entryX=0;entryY=1;entryDx=0;entryDy=0;" edge="1" parent="1" target="OxkYubxT8FCirFuDokRq-4">
          <mxGeometry width="50" height="50" relative="1" as="geometry">
            <mxPoint x="200" y="360" as="sourcePoint" />
            <mxPoint x="350" y="260" as="targetPoint" />
          </mxGeometry>
        </mxCell>
        <mxCell id="OxkYubxT8FCirFuDokRq-4" value="Leaf" style="rounded=0;whiteSpace=wrap;html=1;" vertex="1" parent="1">
          <mxGeometry x="150" y="320" width="120" height="60" as="geometry" />
        </mxCell>
        <mxCell id="OxkYubxT8FCirFuDokRq-14" value="Primary Vein" style="rounded=0;whiteSpace=wrap;html=1;" vertex="1" parent="1">
          <mxGeometry x="120" y="535" width="70" height="30" as="geometry" />
        </mxCell>
        <mxCell id="OxkYubxT8FCirFuDokRq-33" style="edgeStyle=orthogonalEdgeStyle;rounded=0;orthogonalLoop=1;jettySize=auto;html=1;exitX=0.5;exitY=1;exitDx=0;exitDy=0;" edge="1" parent="1" source="OxkYubxT8FCirFuDokRq-10" target="OxkYubxT8FCirFuDokRq-10">
          <mxGeometry relative="1" as="geometry" />
        </mxCell>
        <mxCell id="OxkYubxT8FCirFuDokRq-34" value="Ranchis" style="rounded=0;whiteSpace=wrap;html=1;" vertex="1" parent="1">
          <mxGeometry x="160" y="595" width="80" height="50" as="geometry" />
        </mxCell>
        <mxCell id="OxkYubxT8FCirFuDokRq-35" value="Apex" style="rounded=0;whiteSpace=wrap;html=1;" vertex="1" parent="1">
          <mxGeometry x="230" y="530" width="80" height="40" as="geometry" />
        </mxCell>
        <mxCell id="OxkYubxT8FCirFuDokRq-36" value="" style="endArrow=none;html=1;rounded=0;exitX=0.5;exitY=0;exitDx=0;exitDy=0;entryX=0.894;entryY=1.106;entryDx=0;entryDy=0;entryPerimeter=0;" edge="1" parent="1" source="OxkYubxT8FCirFuDokRq-35" target="OxkYubxT8FCirFuDokRq-4">
          <mxGeometry width="50" height="50" relative="1" as="geometry">
            <mxPoint x="270" y="430" as="sourcePoint" />
            <mxPoint x="320" y="380" as="targetPoint" />
          </mxGeometry>
        </mxCell>
        <mxCell id="OxkYubxT8FCirFuDokRq-37" value="" style="endArrow=none;html=1;rounded=0;exitX=0.5;exitY=0;exitDx=0;exitDy=0;entryX=0.5;entryY=1;entryDx=0;entryDy=0;" edge="1" parent="1" source="OxkYubxT8FCirFuDokRq-34" target="OxkYubxT8FCirFuDokRq-4">
          <mxGeometry width="50" height="50" relative="1" as="geometry">
            <mxPoint x="270" y="430" as="sourcePoint" />
            <mxPoint x="320" y="380" as="targetPoint" />
          </mxGeometry>
        </mxCell>
      </root>
    </mxGraphModel>
  </diagram>
</mxfile>
